<mxfile host="app.diagrams.net" modified="2024-04-11T16:07:25.769Z" agent="Mozilla/5.0 (Windows NT 10.0; Win64; x64) AppleWebKit/537.36 (KHTML, like Gecko) Chrome/123.0.0.0 Safari/537.36" version="24.2.3" etag="xjU5Big3oQuiayvqDv5k" type="github">
  <diagram name="Страница — 1" id="EwKsQ8dY3bF6nT97HCfR">
    <mxGraphModel>
      <root>
        <mxCell id="0" />
        <mxCell id="1" parent="0" />
      </root>
    </mxGraphModel>
  </diagram>
</mxfile>
